<svg width="983" height="5357" viewBox="0 0 983 5357" fill="none" xmlns="http://www.w3.org/2000/svg">
<path d="M849.23 27.7198C734.449 -26.2949 543.787 15.5384 429.823 60.133C302.355 110.012 170.302 253.939 118.46 377.062C66.2936 500.958 57.6009 634.784 139.414 749.322C215.952 856.475 350.654 880.482 462.564 932.342C624.211 1007.25 859.136 1090.3 922.569 1271.53C964.218 1390.53 860.241 1554.91 795.536 1646.09C607.065 1911.66 225.799 1977.65 59.8546 2257.68C-13.5452 2381.54 -12.3954 2546.52 39.5555 2678.4C118.877 2879.75 309.164 3014.17 505.127 3094.86C608.019 3137.23 735.377 3149.13 845.301 3161.65C906.214 3168.59 956.845 3183.21 972.99 3248.74C1014.6 3417.64 877.755 3540.54 771.308 3644.9C698.932 3715.86 596.412 3782.54 507.418 3830.21C466.758 3851.99 379.377 3890.77 335.203 3864.26C211.218 3789.87 41.8474 3831.94 9.10673 3984.09C-34.2821 4185.72 167.108 4398.1 232.398 4578.01C261.041 4656.94 272.126 4737.33 295.259 4817.01C330.121 4937.09 491.863 4980.08 601.711 4936.84C668.129 4910.7 773.374 4804.72 847.921 4860.23C900.552 4899.42 939.097 4985.4 908.163 5048.82C865.854 5135.55 796.469 5195.92 707.136 5228.23C648.861 5249.31 592.745 5272.75 536.885 5299.61C508.956 5313.04 434.363 5332.25 419.019 5355.27" stroke="black" stroke-width="3" stroke-linecap="round"/>
</svg>
